<?xml version="1.0" standalone="no"?><!DOCTYPE svg PUBLIC "-//W3C//DTD SVG 1.1//EN" "http://www.w3.org/Graphics/SVG/1.1/DTD/svg11.dtd"><svg t="1555489786693" class="icon" style="" viewBox="0 0 1024 1024" version="1.1" xmlns="http://www.w3.org/2000/svg" p-id="2174" xmlns:xlink="http://www.w3.org/1999/xlink" width="200" height="200"><defs><style type="text/css"></style></defs><path d="M1012.646039 459.30735 535.153 8.876259c-10.824779-11.426156-28.264701-12.027532-39.690857-0.601377L12.556714 458.104597c-7.216519 6.013766-12.027532 16.237169-12.027532 27.663325 0 19.244052 13.831662 34.278468 30.670208 34.278468l108.849169 0 0 354.812208c0 40.89361 15.034416 78.178961 39.089481 105.240909 24.055065 27.061948 57.130779 43.900494 93.814753 43.900494l117.268442 0 0-144.33039 0-272.423611c0-10.824779 4.209636-21.048182 10.223403-28.264701 6.615143-7.216519 15.635792-12.027532 25.257818-12.027532l174.399221 0c9.622026 0 18.642675 4.811013 25.257818 12.027532 6.615143 7.216519 10.223403 17.439922 10.223403 28.264701l0 416.754 159.966182 0 3.60826 0 4.209636 0c22.250935 0 42.69774-10.223403 57.732156-27.061948 15.034416-16.838545 24.055065-39.690857 24.055065-64.948675L885.154195 520.046389 992.800611 520.046389l0 0c9.020649 0 17.439922-4.209636 23.453688-12.027532C1027.079078 492.984441 1025.274949 471.334883 1012.646039 459.30735zM178.536662 452.692207l1.202753 0 0 0.601377C179.739415 453.293584 179.138039 453.293584 178.536662 452.692207z" p-id="2175" fill="#1296db"></path></svg>